<svg xmlns="http://www.w3.org/2000/svg" width="1158" height="803" viewBox="0 0 1158 803" fill="none">
  <g transform="translate(658 498)">
    <path d="M122.529 87.842L-0.00192821 40.2729L48.5693 7.99803C56.6753 -0.0868051 64.7489 -0.0545541 80.8961 0.00993237L279.506 0.803116L122.529 87.842Z" fill="#D5CBEE" fill-opacity="0.25"/>
  </g>
  <g transform="translate(5 4)">
    <path d="M1154.2 486.765L1146 519.201C1143.59 527.5 1143.28 531.478 1137.86 535.403L725.132 777.271C676.561 809.546 603.899 809.256 547.546 768.445L515.349 743.964L0.00016792 400.984L1.60156 0L594.636 685.772C626.865 702.135 668.909 703.992 701.268 687.886L819.438 614.492L825.913 610.459L991.026 508.03L1005.59 499.159L1057.41 462.027C1073.59 453.974 1081.7 445.89 1097.81 454.071L1146.19 470.499C1151.55 475.932 1154.22 481.354 1154.2 486.765Z" fill="#D5CBEE" fill-opacity="0.25"/>
  </g>
</svg>
