<svg width="20" height="24" viewBox="0 0 20 24" fill="none" xmlns="http://www.w3.org/2000/svg">
<path d="M6.3441 23.3294C2.87203 23.3094 0 16.2217 0 12.6121C0 6.71588 4.42319 5.42503 6.12785 5.42503C6.89607 5.42503 7.71637 5.72671 8.43989 5.99368C8.94584 6.1799 9.4691 6.37213 9.76013 6.37213C9.93432 6.37213 10.3448 6.2086 10.7072 6.06512C11.4802 5.75743 12.4419 5.375 13.5619 5.375C13.5639 5.375 13.5666 5.375 13.5686 5.375C14.4049 5.375 16.9405 5.55853 18.465 7.84789L18.8221 8.3845L18.3082 8.7723C17.574 9.32629 16.2344 10.3368 16.2344 12.3385C16.2344 14.7093 17.7515 15.621 18.4804 16.0595C18.8021 16.2531 19.1351 16.4527 19.1351 16.8892C19.1351 17.1742 16.8604 23.294 13.5572 23.294C12.749 23.294 12.1776 23.0511 11.6737 22.8368C11.1638 22.6199 10.7239 22.433 9.99704 22.433C9.6286 22.433 9.1627 22.6072 8.66946 22.7922C7.99542 23.0437 7.23249 23.3294 6.3668 23.3294L6.3441 23.3294Z" fill="white"/>
<path d="M13.9101 0C13.9962 3.10186 11.7779 5.25379 9.56214 5.11882C9.19703 2.64343 11.7776 0 13.9101 0Z" fill="white"/>
</svg>
