<svg width="16" height="16" viewBox="0 0 16 16" fill="none" xmlns="http://www.w3.org/2000/svg">
<g clip-path="url(#clip0_9410_4853)">
<path d="M4.97254 9.71462C5.82464 9.71462 6.5154 9.02386 6.5154 8.17176C6.5154 7.31966 5.82464 6.62891 4.97254 6.62891C4.12045 6.62891 3.42969 7.31966 3.42969 8.17176C3.42969 9.02386 4.12045 9.71462 4.97254 9.71462Z" stroke="#404040" stroke-linecap="round" stroke-linejoin="round"/>
<path d="M9.70195 5.7154C9.4675 5.05214 9.03467 4.47706 8.46223 4.06816C7.88978 3.65926 7.2054 3.43636 6.50195 3.42969V8.17254" stroke="#404040" stroke-linecap="round" stroke-linejoin="round"/>
<path d="M11.4294 0.570312H1.71512C1.08394 0.570312 0.572266 1.08199 0.572266 1.71317V11.4275C0.572266 12.0587 1.08394 12.5703 1.71512 12.5703H11.4294C12.0606 12.5703 12.5723 12.0587 12.5723 11.4275V1.71317C12.5723 1.08199 12.0606 0.570312 11.4294 0.570312Z" stroke="#404040" stroke-linecap="round" stroke-linejoin="round"/>
<path d="M15.4286 4V14.2857C15.4286 14.5888 15.3081 14.8795 15.0938 15.0938C14.8795 15.3081 14.5888 15.4286 14.2857 15.4286H4" stroke="#404040" stroke-linecap="round" stroke-linejoin="round"/>
</g>
<defs>
<clipPath id="clip0_9410_4853">
<rect width="16" height="16" fill="white"/>
</clipPath>
</defs>
</svg>
