<svg width="24" height="24" viewBox="0 0 24 24" fill="none" xmlns="http://www.w3.org/2000/svg">
<path d="M17.8807 19.2985C16.1219 20.4141 14.0814 21.0049 11.9987 21.0015C6.60669 21.0015 2.12069 17.1215 1.17969 12.0015C1.60972 9.67225 2.78132 7.54443 4.51969 5.93553L1.39069 2.80953L2.80569 1.39453L22.6047 21.1945L21.1897 22.6085L17.8807 19.2985ZM5.93369 7.35153C4.57469 8.58712 3.628 10.2103 3.22169 12.0015C3.53398 13.368 4.16095 14.6427 5.05269 15.7241C5.94443 16.8056 7.07631 17.6639 8.35824 18.2308C9.64017 18.7978 11.0367 19.0576 12.4368 18.9897C13.8368 18.9217 15.2017 18.5279 16.4227 17.8395L14.3947 15.8115C13.5314 16.3553 12.5089 16.5896 11.4949 16.476C10.481 16.3623 9.53573 15.9074 8.81426 15.186C8.09279 14.4645 7.63791 13.5193 7.52425 12.5053C7.41058 11.4913 7.64487 10.4688 8.18869 9.60553L5.93369 7.35153ZM12.9127 14.3295L9.67069 11.0875C9.49275 11.5405 9.45088 12.0355 9.55019 12.5119C9.64951 12.9883 9.8857 13.4253 10.2298 13.7694C10.5739 14.1135 11.011 14.3497 11.4873 14.449C11.9637 14.5483 12.4588 14.5065 12.9117 14.3285L12.9127 14.3295ZM20.8057 16.5935L19.3747 15.1635C20.0432 14.2108 20.5191 13.1367 20.7757 12.0015C20.5039 10.8113 19.993 9.68868 19.2738 8.70203C18.5547 7.71537 17.6425 6.88526 16.5926 6.26214C15.5426 5.63901 14.377 5.2359 13.1664 5.07729C11.9559 4.91869 10.7257 5.00791 9.55069 5.33953L7.97269 3.76153C9.21969 3.27153 10.5787 3.00153 11.9987 3.00153C17.3907 3.00153 21.8767 6.88153 22.8177 12.0015C22.5113 13.6672 21.8225 15.2391 20.8057 16.5935ZM11.7217 7.50953C12.3582 7.47019 12.9958 7.5666 13.5922 7.79235C14.1887 8.0181 14.7303 8.36804 15.1812 8.81898C15.6322 9.26992 15.9821 9.81156 16.2079 10.408C16.4336 11.0044 16.53 11.642 16.4907 12.2785L11.7217 7.50953Z" fill="#888C92"/>
</svg>
