<svg width="22" height="19" viewBox="0 0 22 19" fill="none" xmlns="http://www.w3.org/2000/svg">
<path d="M19.9871 7.48075H19.2487V7.44271H10.9987V11.1094H16.1792C15.4234 13.2438 13.3926 14.776 10.9987 14.776C7.96132 14.776 5.4987 12.3134 5.4987 9.27604C5.4987 6.23867 7.96132 3.77604 10.9987 3.77604C12.4007 3.77604 13.6763 4.30496 14.6475 5.16892L17.2403 2.57613C15.6031 1.05033 13.4132 0.109375 10.9987 0.109375C5.93641 0.109375 1.83203 4.21375 1.83203 9.27604C1.83203 14.3383 5.93641 18.4427 10.9987 18.4427C16.061 18.4427 20.1654 14.3383 20.1654 9.27604C20.1654 8.66142 20.1021 8.06146 19.9871 7.48075Z" fill="#FFC107"/>
<path d="M2.89062 5.00942L5.90233 7.21812C6.71725 5.20054 8.69083 3.77604 11.0004 3.77604C12.4024 3.77604 13.678 4.30496 14.6492 5.16892L17.242 2.57612C15.6048 1.05033 13.4149 0.109375 11.0004 0.109375C7.47946 0.109375 4.42604 2.09717 2.89062 5.00942Z" fill="#FF3D00"/>
<path d="M11.0005 18.4453C13.3682 18.4453 15.5196 17.5392 17.1463 16.0656L14.3092 13.6649C13.3579 14.3883 12.1956 14.7796 11.0005 14.7786C8.61622 14.7786 6.59176 13.2583 5.82909 11.1367L2.83984 13.4398C4.35693 16.4085 7.43784 18.4453 11.0005 18.4453Z" fill="#4CAF50"/>
<path d="M19.9884 7.48335H19.25V7.44531H11V11.112H16.1805C15.819 12.1278 15.1678 13.0155 14.3073 13.6654L14.3087 13.6644L17.1458 16.0652C16.945 16.2476 20.1667 13.862 20.1667 9.27865C20.1667 8.66402 20.1034 8.06406 19.9884 7.48335Z" fill="#1976D2"/>
</svg>
