<svg width="20" height="20" viewBox="0 0 20 20" fill="none" xmlns="http://www.w3.org/2000/svg">
<path d="M2 9.5L3.66667 7.83333M3.66667 7.83333L9.5 2L15.3333 7.83333M3.66667 7.83333V16.1667C3.66667 16.6269 4.03976 17 4.5 17H7M15.3333 7.83333L17 9.5M15.3333 7.83333V16.1667C15.3333 16.6269 14.9602 17 14.5 17H12M7 17C7.46024 17 7.83333 16.6269 7.83333 16.1667V12.8333C7.83333 12.3731 8.20643 12 8.66667 12H10.3333C10.7936 12 11.1667 12.3731 11.1667 12.8333V16.1667C11.1667 16.6269 11.5398 17 12 17M7 17H12" stroke="#8764DE" stroke-width="1.33333" stroke-linecap="round" stroke-linejoin="round"/>
</svg>
