<svg width="20" height="20" viewBox="0 0 20 20" fill="none" xmlns="http://www.w3.org/2000/svg">
<path d="M14.5977 7.13203V4.34766C14.5977 4.01614 14.466 3.69819 14.2315 3.46377C13.9971 3.22935 13.6792 3.09766 13.3477 3.09766H4.59766C4.26614 3.09766 3.94819 3.22935 3.71377 3.46377C3.47935 3.69819 3.34766 4.01614 3.34766 4.34766V7.16016C3.34808 7.35414 3.39345 7.54538 3.4802 7.71889C3.56695 7.89239 3.69272 8.04343 3.84766 8.16016L7.93125 11.2227L3.84766 14.2852C3.69272 14.4019 3.56695 14.5529 3.4802 14.7264C3.39345 14.8999 3.34808 15.0912 3.34766 15.2852V18.0977C3.34766 18.4292 3.47935 18.7471 3.71377 18.9815C3.94819 19.216 4.26614 19.3477 4.59766 19.3477H13.3477C13.6792 19.3477 13.9971 19.216 14.2315 18.9815C14.466 18.7471 14.5977 18.4292 14.5977 18.0977V15.3133C14.5972 15.12 14.5522 14.9295 14.4662 14.7565C14.3801 14.5835 14.2554 14.4326 14.1016 14.3156L10.0094 11.2227L14.1016 8.12969C14.2554 8.01271 14.3801 7.86185 14.4662 7.68883C14.5522 7.5158 14.5972 7.32527 14.5977 7.13203ZM13.3477 15.3133V18.0977H4.59766V15.2852L8.34766 12.4727V14.3477C8.34766 14.5134 8.4135 14.6724 8.53071 14.7896C8.64792 14.9068 8.8069 14.9727 8.97266 14.9727C9.13842 14.9727 9.29739 14.9068 9.4146 14.7896C9.53181 14.6724 9.59766 14.5134 9.59766 14.3477V12.4789L13.3477 15.3133ZM13.3477 7.13203L12.8969 7.47266H5.01406L4.59766 7.16016V4.34766H13.3477V7.13203Z" fill="white"/>
</svg>
