<svg width="22" height="22" viewBox="0 0 22 22" fill="none" xmlns="http://www.w3.org/2000/svg">
<path d="M9.65425 6.14234L11.3987 6.14931L11.3917 7.89371L9.64729 7.88674L9.65425 6.14234ZM9.64032 9.63114L11.3847 9.63811L11.3638 14.8713L9.61942 14.8643L9.64032 9.63114ZM10.5439 1.78483C5.72933 1.76561 1.80627 5.65745 1.78705 10.472C1.76782 15.2865 5.65967 19.2096 10.4742 19.2288C15.2887 19.248 19.2118 15.3562 19.231 10.5417C19.2503 5.72712 15.3584 1.80406 10.5439 1.78483ZM10.4812 17.4844C6.63477 17.4691 3.51608 14.3254 3.53144 10.479C3.54681 6.63256 6.69051 3.51387 10.5369 3.52923C14.3833 3.54459 17.502 6.68829 17.4866 10.5347C17.4713 14.3811 14.3276 17.4998 10.4812 17.4844Z" fill="#6A6E74"/>
</svg>
