<svg width="34" height="34" viewBox="0 0 34 34" fill="none" xmlns="http://www.w3.org/2000/svg">
<path d="M22.5019 4.21875C24.3668 4.21875 26.1552 4.95954 27.4738 6.27816C28.7924 7.59677 29.5332 9.3852 29.5332 11.25V22.5C29.5332 24.3648 28.7924 26.1532 27.4738 27.4718C26.1552 28.7905 24.3668 29.5312 22.5019 29.5312H11.252C9.38715 29.5312 7.59872 28.7905 6.28011 27.4718C4.96149 26.1532 4.2207 24.3648 4.2207 22.5V11.25C4.2207 9.3852 4.96149 7.59677 6.28011 6.27816C7.59872 4.95954 9.38715 4.21875 11.252 4.21875H22.5019ZM16.877 11.25C15.3851 11.25 13.9544 11.8426 12.8995 12.8975C11.8446 13.9524 11.252 15.3832 11.252 16.875C11.252 18.3668 11.8446 19.7976 12.8995 20.8525C13.9544 21.9074 15.3851 22.5 16.877 22.5C18.3688 22.5 19.7995 21.9074 20.8544 20.8525C21.9093 19.7976 22.5019 18.3668 22.5019 16.875C22.5019 15.3832 21.9093 13.9524 20.8544 12.8975C19.7995 11.8426 18.3688 11.25 16.877 11.25ZM16.877 14.0625C17.6229 14.0625 18.3382 14.3588 18.8657 14.8863C19.3931 15.4137 19.6895 16.1291 19.6895 16.875C19.6895 17.6209 19.3931 18.3363 18.8657 18.8637C18.3382 19.3912 17.6229 19.6875 16.877 19.6875C16.131 19.6875 15.4157 19.3912 14.8882 18.8637C14.3608 18.3363 14.0645 17.6209 14.0645 16.875C14.0645 16.1291 14.3608 15.4137 14.8882 14.8863C15.4157 14.3588 16.131 14.0625 16.877 14.0625ZM23.2051 9.14062C22.8321 9.14062 22.4744 9.28878 22.2107 9.55251C21.947 9.81623 21.7988 10.1739 21.7988 10.5469C21.7988 10.9198 21.947 11.2775 22.2107 11.5412C22.4744 11.805 22.8321 11.9531 23.2051 11.9531C23.578 11.9531 23.9357 11.805 24.1994 11.5412C24.4632 11.2775 24.6113 10.9198 24.6113 10.5469C24.6113 10.1739 24.4632 9.81623 24.1994 9.55251C23.9357 9.28878 23.578 9.14062 23.2051 9.14062Z" fill="#735DAA"/>
</svg>
