<svg width="36" height="36" viewBox="0 0 36 36" fill="none" xmlns="http://www.w3.org/2000/svg">
<path d="M28.498 4.49609C29.2937 4.49609 30.0568 4.81216 30.6194 5.37477C31.182 5.93738 31.498 6.70044 31.498 7.49609V28.4961C31.498 29.2917 31.182 30.0548 30.6194 30.6174C30.0568 31.18 29.2937 31.4961 28.498 31.4961H7.49805C6.7024 31.4961 5.93934 31.18 5.37673 30.6174C4.81412 30.0548 4.49805 29.2917 4.49805 28.4961V7.49609C4.49805 6.70044 4.81412 5.93738 5.37673 5.37477C5.93934 4.81216 6.7024 4.49609 7.49805 4.49609H28.498ZM27.748 27.7461V19.7961C27.748 18.4992 27.2328 17.2554 26.3158 16.3383C25.3987 15.4213 24.155 14.9061 22.858 14.9061C21.583 14.9061 20.098 15.6861 19.378 16.8561V15.1911H15.193V27.7461H19.378V20.3511C19.378 19.1961 20.308 18.2511 21.463 18.2511C22.02 18.2511 22.5541 18.4723 22.948 18.8662C23.3418 19.26 23.563 19.7941 23.563 20.3511V27.7461H27.748ZM10.318 12.8361C10.9864 12.8361 11.6274 12.5706 12.1 12.098C12.5725 11.6254 12.838 10.9844 12.838 10.3161C12.838 8.92109 11.713 7.78109 10.318 7.78109C9.64572 7.78109 9.00094 8.04817 8.52553 8.52358C8.05013 8.99898 7.78305 9.64377 7.78305 10.3161C7.78305 11.7111 8.92305 12.8361 10.318 12.8361ZM12.403 27.7461V15.1911H8.24805V27.7461H12.403Z" fill="#735DAA"/>
</svg>
