<svg width="17" height="16" viewBox="0 0 17 16" fill="none" xmlns="http://www.w3.org/2000/svg">
<path d="M10.0513 4.85624V3.28359C10.0513 2.86649 9.88784 2.46648 9.59686 2.17156C9.30588 1.87663 8.91123 1.71094 8.49972 1.71094H3.06917C2.65766 1.71094 2.26301 1.87663 1.97203 2.17156C1.68105 2.46648 1.51758 2.86649 1.51758 3.28359V12.7195C1.51758 13.1366 1.68105 13.5366 1.97203 13.8315C2.26301 14.1264 2.65766 14.2921 3.06917 14.2921H8.49972C8.91123 14.2921 9.30588 14.1264 9.59686 13.8315C9.88784 13.5366 10.0513 13.1366 10.0513 12.7195V11.1468" stroke="#505053" stroke-linecap="round" stroke-linejoin="round"/>
<path d="M6.17188 7.9996H15.4814L13.154 5.64062" stroke="#505053" stroke-linecap="round" stroke-linejoin="round"/>
<path d="M13.1562 10.359L15.4836 8" stroke="#505053" stroke-linecap="round" stroke-linejoin="round"/>
</svg>
