<svg width="54" height="37" viewBox="0 0 54 37" fill="none" xmlns="http://www.w3.org/2000/svg">
<g clip-path="url(#clip0_7892_34781)">
<path d="M47.9542 0.78125H4.01085C1.374 0.78125 -0.761719 2.91697 -0.761719 5.55382V6.77082L21.7409 21.9834C23.3755 23.0811 25.4993 23.1407 27.122 22.1265L33.8871 17.867L33.9587 17.8312L42.9192 12.6411H42.955L43.2652 12.4382L43.7544 12.1161C44.3629 11.7343 45.0788 11.5195 45.7946 11.7582L48.0258 12.486C48.3241 12.5933 48.5031 12.8916 48.4434 13.178L48.0735 15.0274C48.002 15.3376 47.8111 15.612 47.5247 15.7671L28.3151 27.0184C25.4039 28.7008 21.6813 28.4621 18.8774 26.4099L17.1473 25.1452L-0.761719 13.2854V32.6739C-0.761719 35.3108 1.374 37.4465 4.01085 37.4465H47.9542C50.5911 37.4465 52.7268 35.3108 52.7268 32.6739V5.55382C52.7268 2.91697 50.5911 0.78125 47.9542 0.78125ZM31.4889 16.9722L24.8431 14.6575L27.5634 13.0109C28.1362 12.6769 28.7924 12.4979 29.4605 12.4979L39.3398 12.6053L31.4889 16.9722Z" fill="#654E9F"/>
</g>
<defs>
<clipPath id="clip0_7892_34781">
<rect width="53.4885" height="36.6652" fill="white"/>
</clipPath>
</defs>
</svg>
