<svg width="160" height="37" viewBox="0 0 160 37" fill="none" xmlns="http://www.w3.org/2000/svg">
<g clip-path="url(#clip0_8119_22315)">
<path d="M48.716 0H4.77256C2.13572 0 0 2.13572 0 4.77257V5.98957L22.5026 21.2021C24.1372 22.2998 26.261 22.3595 27.8837 21.3453L34.6488 17.0858L34.7204 17.05L43.6809 11.8598H43.7167L44.0269 11.657L44.5161 11.3348C45.1246 10.953 45.8405 10.7383 46.5564 10.9769L48.7875 11.7047C49.0858 11.8121 49.2648 12.1104 49.2051 12.3967L48.8353 14.2461C48.7637 14.5563 48.5728 14.8307 48.2864 14.9859L29.0768 26.2372C26.1656 27.9195 22.443 27.6809 19.6391 25.6287L17.909 24.3639L0 12.5041V31.8927C0 34.5295 2.13572 36.6652 4.77256 36.6652H48.716C51.3528 36.6652 53.4885 34.5295 53.4885 31.8927V4.77257C53.4885 2.13572 51.3528 0 48.716 0ZM32.2506 16.1909L25.6048 13.8762L28.3252 12.2297C28.8979 11.8956 29.5541 11.7166 30.2223 11.7166L40.1015 11.824L32.2506 16.1909Z" fill="#654E9F"/>
</g>
<path d="M72.1276 16.332L69.346 16.332L69.346 2.86635L72.1276 2.86635L72.1276 16.332ZM70.9054 14.0035L77.9543 14.0035L77.9543 16.332L70.9054 16.332L70.9054 14.0035ZM84.5505 16.5849C82.7803 16.5849 81.4633 16.1775 80.5993 15.3627C79.7353 14.5478 79.3033 13.3678 79.3033 11.8224L79.3033 10.4737C79.3033 8.94241 79.7072 7.76584 80.515 6.94399C81.3228 6.12214 82.4959 5.71121 84.0342 5.71121C85.0738 5.71121 85.9413 5.89385 86.6367 6.25911C87.3321 6.62438 87.8519 7.14418 88.1961 7.81852C88.5473 8.48583 88.7229 9.28661 88.7229 10.2208L88.7229 10.5896C88.7229 10.8425 88.7089 11.1024 88.6808 11.3693C88.6597 11.6292 88.6281 11.8751 88.586 12.1069L86.1415 12.1069C86.1626 11.7205 86.1731 11.3553 86.1731 11.0111C86.1801 10.6599 86.1836 10.3438 86.1836 10.0628C86.1836 9.57812 86.1064 9.16719 85.9518 8.83003C85.7973 8.48583 85.562 8.22593 85.2459 8.05032C84.9298 7.87471 84.5259 7.78691 84.0342 7.78691C83.3107 7.78691 82.7768 7.9871 82.4326 8.38749C82.0885 8.78788 81.9164 9.35685 81.9164 10.0944L81.9164 11.0532L81.9269 11.3588L81.9269 12.1701C81.9269 12.4932 81.9761 12.7918 82.0744 13.0657C82.1798 13.3397 82.3519 13.5785 82.5907 13.7822C82.8295 13.9789 83.1456 14.1334 83.539 14.2458C83.9394 14.3582 84.4381 14.4144 85.0352 14.4144C85.6814 14.4144 86.296 14.3441 86.8791 14.2037C87.4691 14.0561 88.0275 13.8595 88.5544 13.6136L88.3226 15.742C87.8519 16.0019 87.297 16.2056 86.6578 16.3531C86.0256 16.5076 85.3232 16.5849 84.5505 16.5849ZM80.7363 12.1069L80.7363 10.3157L88.0381 10.3157L88.0381 12.1069L80.7363 12.1069ZM95.1078 16.5533C94.2297 16.5533 93.5273 16.4233 93.0004 16.1634C92.4806 15.8965 92.1048 15.4961 91.873 14.9623C91.6412 14.4284 91.5253 13.7717 91.5253 12.992L91.5253 6.96506L94.2016 6.96506L94.2016 12.5916C94.2016 13.1535 94.3281 13.5679 94.5809 13.8349C94.8408 14.0948 95.2939 14.2247 95.9401 14.2247C96.3195 14.2247 96.6847 14.1861 97.0359 14.1088C97.3872 14.0245 97.7103 13.9157 98.0053 13.7822L97.7735 16.037C97.4223 16.1986 97.0184 16.325 96.5618 16.4163C96.1122 16.5076 95.6276 16.5533 95.1078 16.5533ZM90.0291 8.20837L90.0291 6.07999L97.9105 6.07999L97.6787 8.20837L90.0291 8.20837ZM91.5569 6.28019L91.5464 3.54069L94.2332 3.26674L94.1279 6.28019L91.5569 6.28019ZM102.855 16.5533C101.977 16.5533 101.275 16.4233 100.748 16.1634C100.228 15.8965 99.8525 15.4961 99.6207 14.9623C99.3889 14.4284 99.273 13.7717 99.273 12.992L99.273 6.96506L101.949 6.96506L101.949 12.5916C101.949 13.1535 102.076 13.5679 102.329 13.8349C102.588 14.0948 103.042 14.2247 103.688 14.2247C104.067 14.2247 104.432 14.1861 104.784 14.1088C105.135 14.0245 105.458 13.9157 105.753 13.7822L105.521 16.037C105.17 16.1986 104.766 16.325 104.309 16.4163C103.86 16.5076 103.375 16.5533 102.855 16.5533ZM97.7768 8.20837L97.7768 6.07999L105.658 6.07999L105.426 8.20837L97.7768 8.20837ZM99.3046 6.28019L99.294 3.54069L101.981 3.26674L101.875 6.28019L99.3046 6.28019ZM112.403 16.5849C110.633 16.5849 109.316 16.1775 108.452 15.3627C107.588 14.5478 107.156 13.3678 107.156 11.8224L107.156 10.4737C107.156 8.94241 107.56 7.76584 108.368 6.94399C109.175 6.12214 110.349 5.71121 111.887 5.71121C112.926 5.71121 113.794 5.89385 114.489 6.25911C115.185 6.62438 115.705 7.14418 116.049 7.81852C116.4 8.48583 116.576 9.28661 116.576 10.2208L116.576 10.5896C116.576 10.8425 116.562 11.1024 116.533 11.3693C116.512 11.6292 116.481 11.8751 116.439 12.1069L113.994 12.1069C114.015 11.7205 114.026 11.3553 114.026 11.0111C114.033 10.6599 114.036 10.3438 114.036 10.0628C114.036 9.57812 113.959 9.16719 113.804 8.83003C113.65 8.48583 113.415 8.22593 113.099 8.05032C112.782 7.87471 112.379 7.78691 111.887 7.78691C111.163 7.78691 110.629 7.9871 110.285 8.38749C109.941 8.78788 109.769 9.35685 109.769 10.0944L109.769 11.0532L109.78 11.3588L109.78 12.1701C109.78 12.4932 109.829 12.7918 109.927 13.0657C110.032 13.3397 110.205 13.5785 110.443 13.7822C110.682 13.9789 110.998 14.1334 111.392 14.2458C111.792 14.3582 112.291 14.4144 112.888 14.4144C113.534 14.4144 114.149 14.3441 114.732 14.2037C115.322 14.0561 115.88 13.8595 116.407 13.6136L116.175 15.742C115.705 16.0019 115.15 16.2056 114.51 16.3531C113.878 16.5076 113.176 16.5849 112.403 16.5849ZM108.589 12.1069L108.589 10.3157L115.891 10.3157L115.891 12.1069L108.589 12.1069ZM121.518 10.3262L120.834 8.52447L121.487 8.52447C121.676 7.68857 122.021 7.03179 122.519 6.55414C123.018 6.07648 123.71 5.83765 124.595 5.83765C124.778 5.83765 124.943 5.8517 125.09 5.8798C125.238 5.90087 125.371 5.92897 125.491 5.96409L125.638 8.66144C125.484 8.61227 125.305 8.57715 125.101 8.55608C124.897 8.52798 124.683 8.51393 124.458 8.51393C123.742 8.51393 123.13 8.67198 122.625 8.98807C122.126 9.30417 121.757 9.75022 121.518 10.3262ZM118.895 16.332L118.895 5.9957L121.466 5.9957L121.35 9.16719L121.592 9.26202L121.592 16.332L118.895 16.332ZM131.181 16.5849C130.352 16.5849 129.614 16.5041 128.968 16.3426C128.329 16.188 127.784 16.0124 127.335 15.8157L127.092 13.4766C127.626 13.7225 128.213 13.9367 128.852 14.1194C129.498 14.302 130.208 14.3933 130.98 14.3933C131.655 14.3933 132.143 14.309 132.445 14.1404C132.747 13.9648 132.898 13.7049 132.898 13.3607L132.898 13.2975C132.898 13.0657 132.828 12.8761 132.687 12.7285C132.554 12.581 132.315 12.4476 131.971 12.3282C131.627 12.2017 131.142 12.0683 130.517 11.9278C129.653 11.7241 128.968 11.4887 128.462 11.2218C127.963 10.9479 127.605 10.6142 127.387 10.2208C127.17 9.82046 127.061 9.3428 127.061 8.78788L127.061 8.69305C127.061 7.71667 127.408 6.98262 128.104 6.49092C128.799 5.99219 129.828 5.74282 131.191 5.74282C131.999 5.74282 132.712 5.8236 133.33 5.98516C133.955 6.1397 134.475 6.32584 134.889 6.5436L135.132 8.69305C134.64 8.46125 134.089 8.26808 133.477 8.11354C132.866 7.95198 132.21 7.8712 131.507 7.8712C131.051 7.8712 130.689 7.90984 130.422 7.9871C130.162 8.05735 129.976 8.1592 129.863 8.29266C129.751 8.42613 129.695 8.58769 129.695 8.77734L129.695 8.83003C129.695 9.04076 129.755 9.22339 129.874 9.37792C130 9.53246 130.229 9.67295 130.559 9.79939C130.889 9.9188 131.353 10.0488 131.95 10.1892C132.821 10.3719 133.52 10.5861 134.046 10.832C134.573 11.0778 134.956 11.3939 135.195 11.7803C135.434 12.1596 135.553 12.6583 135.553 13.2764L135.553 13.4029C135.553 14.4706 135.191 15.2678 134.468 15.7947C133.744 16.3215 132.649 16.5849 131.181 16.5849ZM73.1918 34.5533C72.3137 34.5533 71.6113 34.4233 71.0845 34.1634C70.5647 33.8965 70.1889 33.4961 69.9571 32.9623C69.7253 32.4284 69.6094 31.7717 69.6094 30.992L69.6094 24.9651L72.2856 24.9651L72.2856 30.5916C72.2856 31.1535 72.4121 31.5679 72.665 31.8349C72.9249 32.0948 73.3779 32.2247 74.0242 32.2247C74.4035 32.2247 74.7687 32.1861 75.12 32.1088C75.4712 32.0245 75.7943 31.9157 76.0893 31.7822L75.8575 34.037C75.5063 34.1986 75.1024 34.325 74.6458 34.4163C74.1963 34.5076 73.7116 34.5533 73.1918 34.5533ZM68.1132 26.2084L68.1132 24.08L75.9945 24.08L75.7627 26.2084L68.1132 26.2084ZM69.641 24.2802L69.6304 21.5407L72.3173 21.2667L72.2119 24.2802L69.641 24.2802ZM82.3707 34.6165C80.7692 34.6165 79.554 34.2056 78.7251 33.3837C77.9033 32.5619 77.4923 31.3923 77.4923 29.8751L77.4923 28.4737C77.4923 26.9494 77.9033 25.7764 78.7251 24.9545C79.554 24.1257 80.7692 23.7112 82.3707 23.7112C83.9653 23.7112 85.1735 24.1257 85.9953 24.9545C86.8172 25.7764 87.2281 26.9494 87.2281 28.4737L87.2281 29.8751C87.2281 31.3923 86.8172 32.5619 85.9953 33.3837C85.1805 34.2056 83.9723 34.6165 82.3707 34.6165ZM82.3707 32.4565C83.0732 32.4565 83.607 32.2458 83.9723 31.8243C84.3446 31.4029 84.5307 30.7988 84.5307 30.0121L84.5307 28.3367C84.5307 27.536 84.3446 26.9249 83.9723 26.5034C83.607 26.0749 83.0732 25.8607 82.3707 25.8607C81.6613 25.8607 81.1204 26.0749 80.7481 26.5034C80.3829 26.9249 80.2002 27.536 80.2002 28.3367L80.2002 30.0121C80.2002 30.7988 80.3829 31.4029 80.7481 31.8243C81.1204 32.2458 81.6613 32.4565 82.3707 32.4565ZM92.7609 34.332L96.7332 20.8664L100.937 20.8664L104.899 34.332L102.107 34.332L98.9669 22.6892L98.714 22.6892L95.5531 34.332L92.7609 34.332ZM95.7744 30.8971L95.7744 28.695L101.864 28.695L101.864 30.8971L95.7744 30.8971ZM112.536 34.5744C111.918 34.5744 111.391 34.476 110.955 34.2793C110.527 34.0756 110.179 33.7912 109.912 33.4259C109.652 33.0606 109.466 32.6321 109.354 32.1404L108.585 32.1404L109.28 30.0753C109.301 30.567 109.406 30.9814 109.596 31.3186C109.786 31.6558 110.049 31.9086 110.386 32.0772C110.724 32.2458 111.113 32.3301 111.556 32.3301C112.237 32.3301 112.754 32.1334 113.105 31.74C113.456 31.3397 113.632 30.7426 113.632 29.9488L113.632 28.2735C113.632 27.5009 113.456 26.9178 113.105 26.5245C112.754 26.1311 112.237 25.9344 111.556 25.9344C111.156 25.9344 110.797 26.0117 110.481 26.1662C110.165 26.3137 109.902 26.5139 109.691 26.7668C109.48 27.0197 109.329 27.3112 109.238 27.6413L108.627 26.1873L109.385 26.1873C109.498 25.7377 109.677 25.3303 109.923 24.9651C110.169 24.5928 110.509 24.3013 110.945 24.0905C111.387 23.8728 111.949 23.7639 112.631 23.7639C113.846 23.7639 114.77 24.1573 115.402 24.944C116.034 25.7237 116.35 26.8792 116.35 28.4105L116.35 29.8435C116.35 31.3888 116.03 32.5654 115.391 33.3732C114.752 34.174 113.8 34.5744 112.536 34.5744ZM106.635 34.332L106.635 20.4027L109.322 20.4027L109.322 23.5848L109.27 26.7352L109.28 27.0618L109.28 31.1605L109.238 31.8033L109.333 34.332L106.635 34.332ZM121.179 28.3262L120.494 26.5245L121.148 26.5245C121.337 25.6886 121.681 25.0318 122.18 24.5541C122.679 24.0765 123.371 23.8377 124.256 23.8377C124.439 23.8377 124.604 23.8517 124.751 23.8798C124.899 23.9009 125.032 23.929 125.152 23.9641L125.299 26.6614C125.144 26.6123 124.965 26.5771 124.762 26.5561C124.558 26.528 124.344 26.5139 124.119 26.5139C123.402 26.5139 122.791 26.672 122.286 26.9881C121.787 27.3042 121.418 27.7502 121.179 28.3262ZM118.556 34.332L118.556 23.9957L121.127 23.9957L121.011 27.1672L121.253 27.262L121.253 34.332L118.556 34.332ZM131.24 34.6165C129.638 34.6165 128.423 34.2056 127.594 33.3837C126.772 32.5619 126.361 31.3923 126.361 29.8751L126.361 28.4737C126.361 26.9494 126.772 25.7764 127.594 24.9545C128.423 24.1257 129.638 23.7112 131.24 23.7112C132.834 23.7112 134.042 24.1257 134.864 24.9545C135.686 25.7764 136.097 26.9494 136.097 28.4737L136.097 29.8751C136.097 31.3923 135.686 32.5619 134.864 33.3837C134.049 34.2056 132.841 34.6165 131.24 34.6165ZM131.24 32.4565C131.942 32.4565 132.476 32.2458 132.841 31.8243C133.213 31.4029 133.4 30.7988 133.4 30.0121L133.4 28.3367C133.4 27.536 133.213 26.9249 132.841 26.5034C132.476 26.0749 131.942 25.8607 131.24 25.8607C130.53 25.8607 129.989 26.0749 129.617 26.5034C129.252 26.9249 129.069 27.536 129.069 28.3367L129.069 30.0121C129.069 30.7988 129.252 31.4029 129.617 31.8243C129.989 32.2458 130.53 32.4565 131.24 32.4565ZM144.245 34.332L144.339 31.8033L144.266 31.5715L144.266 28.3367L144.255 27.8731C144.255 27.1988 144.069 26.7036 143.697 26.3875C143.331 26.0714 142.731 25.9133 141.895 25.9133C141.185 25.9133 140.518 26.0082 139.893 26.1978C139.275 26.3805 138.702 26.5947 138.175 26.8406L138.407 24.6911C138.716 24.5296 139.068 24.3785 139.461 24.238C139.861 24.0905 140.307 23.9711 140.799 23.8798C141.291 23.7885 141.821 23.7428 142.39 23.7428C143.233 23.7428 143.946 23.8447 144.529 24.0484C145.112 24.2451 145.576 24.5296 145.92 24.9018C146.271 25.2741 146.524 25.7202 146.678 26.24C146.833 26.7528 146.91 27.3217 146.91 27.9469L146.91 34.332L144.245 34.332ZM140.862 34.5744C139.837 34.5744 139.054 34.318 138.513 33.8052C137.979 33.2924 137.712 32.5619 137.712 31.6136L137.712 31.3186C137.712 30.3141 138.021 29.573 138.639 29.0954C139.257 28.6107 140.237 28.277 141.579 28.0944L144.508 27.694L144.666 29.4325L141.969 29.8224C141.379 29.8997 140.957 30.0402 140.704 30.2439C140.458 30.4476 140.335 30.7461 140.335 31.1395L140.335 31.2448C140.335 31.6312 140.455 31.9332 140.694 32.151C140.94 32.3617 141.322 32.4671 141.842 32.4671C142.306 32.4671 142.703 32.3933 143.033 32.2458C143.363 32.0983 143.633 31.9051 143.844 31.6663C144.062 31.4204 144.216 31.1465 144.308 30.8444L144.687 32.1826L144.223 32.1826C144.111 32.6251 143.928 33.029 143.676 33.3943C143.43 33.7525 143.082 34.0405 142.632 34.2583C142.183 34.469 141.593 34.5744 140.862 34.5744ZM152.687 34.5744C151.472 34.5744 150.548 34.181 149.916 33.3943C149.284 32.6076 148.968 31.4485 148.968 29.9172L148.968 28.4948C148.968 26.9424 149.287 25.7658 149.926 24.9651C150.566 24.1643 151.517 23.7639 152.782 23.7639C153.4 23.7639 153.92 23.8622 154.341 24.0589C154.77 24.2556 155.114 24.5366 155.374 24.9018C155.641 25.2671 155.827 25.6956 155.932 26.1873L156.722 26.1873L156.038 28.1892C156.023 27.7046 155.922 27.2971 155.732 26.967C155.549 26.6298 155.293 26.3734 154.963 26.1978C154.633 26.0222 154.243 25.9344 153.793 25.9344C153.112 25.9344 152.589 26.1311 152.223 26.5245C151.865 26.9178 151.686 27.5044 151.686 28.2841L151.686 29.991C151.686 30.7637 151.865 31.3467 152.223 31.74C152.589 32.1334 153.119 32.3301 153.814 32.3301C154.208 32.3301 154.559 32.2563 154.868 32.1088C155.177 31.9613 155.433 31.7611 155.637 31.5082C155.848 31.2483 155.999 30.9568 156.09 30.6337L156.733 32.1404L155.974 32.1404C155.862 32.59 155.679 33.0009 155.426 33.3732C155.174 33.7385 154.826 34.03 154.383 34.2477C153.941 34.4655 153.375 34.5744 152.687 34.5744ZM155.995 34.332L156.09 31.8033L156.038 31.2027L156.038 26.9775L156.048 26.5455L155.995 23.5848L155.995 20.4027L158.693 20.4027L158.693 34.332L155.995 34.332Z" fill="#654E9F"/>
<defs>
<clipPath id="clip0_8119_22315">
<rect width="53.4885" height="36.6652" fill="white"/>
</clipPath>
</defs>
</svg>
