<svg width="16" height="16" viewBox="0 0 16 16" fill="none" xmlns="http://www.w3.org/2000/svg">
<path d="M13.0312 4.34107C13.2508 4.46595 13.4332 4.64708 13.5595 4.86583C13.6858 5.08457 13.7516 5.33303 13.75 5.58563V10.2393C13.75 10.7562 13.467 11.2328 13.0102 11.4839L8.69767 14.2119C8.48387 14.3293 8.2439 14.3908 8 14.3908C7.7561 14.3908 7.51613 14.3293 7.30233 14.2119L2.98983 11.4839C2.76633 11.3617 2.57975 11.1818 2.4496 10.9628C2.31945 10.7439 2.25051 10.494 2.25 10.2393V5.58499C2.25 5.06813 2.53303 4.59216 2.98983 4.34107L7.30233 1.7983C7.52245 1.67693 7.76972 1.61328 8.02108 1.61328C8.27244 1.61328 8.51971 1.67693 8.73983 1.7983L13.0523 4.34107H13.0312Z" stroke="#505053" stroke-linecap="round" stroke-linejoin="round"/>
<path d="M6.08203 7.9987C6.08203 8.50703 6.28396 8.99454 6.64341 9.35399C7.00285 9.71343 7.49037 9.91536 7.9987 9.91536C8.50703 9.91536 8.99454 9.71343 9.35399 9.35399C9.71343 8.99454 9.91536 8.50703 9.91536 7.9987C9.91536 7.49037 9.71343 7.00285 9.35399 6.64341C8.99454 6.28396 8.50703 6.08203 7.9987 6.08203C7.49037 6.08203 7.00285 6.28396 6.64341 6.64341C6.28396 7.00285 6.08203 7.49037 6.08203 7.9987Z" stroke="#505053" stroke-linecap="round" stroke-linejoin="round"/>
</svg>
