<svg width="16" height="16" viewBox="0 0 16 16" fill="none" xmlns="http://www.w3.org/2000/svg">
<g clip-path="url(#clip0_9410_21216)">
<path d="M8 14.8546C12.7326 14.8546 14.5278 13.8754 14.5278 10.2852" stroke="#404040" stroke-linecap="round" stroke-linejoin="round"/>
<path d="M2.38752 11.8459C1.83789 11.7085 1.47266 11.2068 1.47266 10.6405V9.63197V8.62408C1.47266 8.05747 1.83789 7.55548 2.38752 7.41807C2.91823 7.28523 3.6154 7.13607 4.30082 7.06427C4.77016 7.01498 5.18337 7.29013 5.26138 7.75523C5.32992 8.16126 5.38932 8.7641 5.38932 9.63197C5.38932 10.5002 5.32959 11.103 5.26138 11.5087C5.18305 11.9738 4.77016 12.249 4.30082 12.2C3.6154 12.1282 2.91823 11.9787 2.38752 11.8459Z" stroke="#404040" stroke-linecap="round" stroke-linejoin="round"/>
<path d="M13.6131 11.8459C14.1628 11.7085 14.528 11.2068 14.528 10.6405V9.63197V8.62408C14.528 8.05747 14.1628 7.55548 13.6131 7.41807C13.0824 7.28523 12.3853 7.13607 11.6998 7.06427C11.2305 7.01498 10.8173 7.29013 10.7393 7.75523C10.6707 8.16126 10.6113 8.7641 10.6113 9.63197C10.6113 10.5002 10.6711 11.103 10.7393 11.5087C10.8176 11.9738 11.2305 12.249 11.6998 12.2C12.3853 12.1282 13.0824 11.9787 13.6131 11.8459Z" stroke="#404040" stroke-linecap="round" stroke-linejoin="round"/>
<path d="M14.5282 8.62243V7.67231C14.5282 4.06702 11.6057 1.14453 8.00043 1.14453C4.39514 1.14453 1.47266 4.06702 1.47266 7.67231V8.62243M12.5555 7.18697C12.3695 4.90127 10.4014 3.10286 8.00043 3.10286C5.59984 3.10286 3.63139 4.90127 3.44535 7.18697" stroke="#404040" stroke-linecap="round" stroke-linejoin="round"/>
</g>
<defs>
<clipPath id="clip0_9410_21216">
<rect width="16" height="16" fill="white"/>
</clipPath>
</defs>
</svg>
