<svg width="20" height="20" viewBox="0 0 20 20" fill="none" xmlns="http://www.w3.org/2000/svg">
<path d="M9.50545 18.257C14.3388 18.257 18.257 14.3388 18.257 9.50545C18.257 4.67211 14.3388 0.753906 9.50545 0.753906C4.67211 0.753906 0.753906 4.67211 0.753906 9.50545C0.753906 14.3388 4.67211 18.257 9.50545 18.257Z" stroke="white" stroke-width="1.50889"/>
<path d="M1.50731 14.4858L0.119141 19.4047L5.21919 17.9864L5.49076 16.4171L2.1712 17.4734L3.04637 14.3047L1.50731 14.4858Z" fill="white"/>
<path d="M2.11133 17.5035C2.11133 17.4733 3.16755 13.9727 3.16755 13.9727L5.70249 16.3567L2.11133 17.5035Z" fill="#27D045"/>
<path d="M5.72301 5.17155C5.41489 5.38535 5.1522 5.65813 4.95018 5.97411C4.74817 6.29008 4.61082 6.64298 4.54607 7.01239C4.39518 8.18932 5.11946 9.39643 5.11946 9.39643C5.85413 10.4895 6.72638 11.4834 7.71473 12.3538C8.57931 13.038 9.56091 13.5595 10.6118 13.8929C11.2248 14.1377 11.8954 14.2005 12.5432 14.074C13.1174 13.9164 13.6253 13.5777 13.9917 13.1083C14.0775 12.8947 14.1383 12.6719 14.1728 12.4444C14.2073 12.2447 14.2073 12.0405 14.1728 11.8408C14.1426 11.6296 11.9698 10.6337 11.7586 10.6941C11.5473 10.7544 11.3662 11.1467 11.1248 11.4787C10.8834 11.8106 10.7929 11.9615 10.5514 11.9615C10.31 11.9615 9.25378 11.539 8.25791 10.6337C7.6891 10.1405 7.24456 9.52019 6.96029 8.82305C6.96029 8.82305 7.14136 8.61181 7.38279 8.27985C7.57064 8.07402 7.7053 7.82538 7.77507 7.55559C7.77507 7.4047 6.9301 5.26208 6.71885 5.17155C6.38852 5.12511 6.05334 5.12511 5.72301 5.17155Z" fill="white"/>
</svg>
