<svg width="34" height="29" viewBox="0 0 34 29" fill="none" xmlns="http://www.w3.org/2000/svg">
<mask id="mask0_7892_34737" style="mask-type:luminance" maskUnits="userSpaceOnUse" x="2" y="2" width="29" height="24">
<path fill-rule="evenodd" clip-rule="evenodd" d="M30.9316 14.1055V14.2124C30.9317 16.5805 30.9317 18.5104 30.7196 19.9952C30.4997 21.5345 30.0157 22.888 28.8069 23.8284C27.6731 24.7102 26.128 25.0388 24.3069 25.1962C22.4632 25.3555 20.0358 25.3555 16.9259 25.3555H16.8691H16.8124C13.7025 25.3555 11.2751 25.3555 9.4314 25.1962C7.61028 25.0388 6.0652 24.7102 4.9314 23.8284C3.72261 22.888 3.23857 21.5345 3.01868 19.9952C2.80655 18.5104 2.80659 16.5805 2.80664 14.2124V14.1055V13.9985C2.80659 11.6304 2.80655 9.70056 3.01868 8.2157C3.23857 6.67647 3.72261 5.3229 4.9314 4.38257C6.0652 3.50072 7.61028 3.17215 9.4314 3.01477C11.275 2.85546 13.7025 2.85546 16.8123 2.85547H16.8691H16.926C20.0358 2.85546 22.4632 2.85546 24.3069 3.01477C26.128 3.17215 27.6731 3.50072 28.8069 4.38257C30.0157 5.3229 30.4997 6.67647 30.7196 8.2157C30.9317 9.70056 30.9317 11.6304 30.9316 13.9985V14.1055ZM14.0566 9.18359L22.4941 14.1055L14.0566 19.0273V9.18359Z" fill="white"/>
</mask>
<g mask="url(#mask0_7892_34737)">
<path d="M33.748 -2.76953H-0.00195312V30.9805H33.748V-2.76953Z" fill="#735DAA"/>
</g>
</svg>
